<svg width="546" height="194" viewBox="0 0 546 194" fill="none" xmlns="http://www.w3.org/2000/svg">
<path fill-rule="evenodd" clip-rule="evenodd" d="M117.362 101.401C118.279 101.576 119.106 101.983 119.997 102.228C121.179 102.945 122.394 103.572 123.382 104.747C123.692 104.825 123.77 105.2 123.899 105.458C124.693 106.414 125.578 107.331 125.785 108.533C126.095 109.037 126.134 109.644 126.457 110.142C126.709 110.885 126.689 111.737 126.851 112.506L126.967 149.01C126.728 149.45 126.954 150.083 126.773 150.548C126.483 151.375 126.464 152.318 125.985 153.067C125.662 154.294 124.984 155.374 124.131 156.375C123.738 157.247 122.749 157.699 122.084 158.422C121.199 158.965 120.411 159.76 119.37 159.921C118.705 160.393 117.872 160.451 117.084 160.625C116.702 160.567 116.431 160.729 116.102 160.787L55.4567 160.748C54.8753 160.554 54.1774 160.664 53.6479 160.354C53.2667 160.031 52.6723 160.212 52.3429 159.76C51.7229 159.837 51.3933 159.198 50.8508 159.094C49.7269 158.087 48.4606 157.176 47.6595 155.903C46.9619 154.772 46.3289 153.616 45.9282 152.357C45.6505 151.814 45.4957 151.226 45.4568 150.587C45.4763 150.244 45.4373 149.934 45.3342 149.643L45.1791 113.177C45.3731 112.725 45.3079 112.176 45.3731 111.679C45.7089 110.787 45.631 109.722 46.1998 108.921C46.3094 108.158 46.9168 107.596 47.1491 106.873C47.7886 106.427 47.7305 105.787 48.37 105.342C49.2616 104.024 50.6052 103.307 51.8326 102.544C53.0084 101.853 54.3844 101.64 55.7344 101.363L115.236 101.207C116.044 101.033 116.58 101.517 117.362 101.401ZM115.469 104.121C115.83 104.353 116.36 104.166 116.767 104.276L118.854 105.026V105.219C118.311 107.273 116.89 108.966 115.94 110.852C114.577 112.564 113.628 114.437 111.845 115.975C109.926 118.087 107.801 120.057 105.624 121.724L101.373 124.87C100.637 125.2 100.036 125.871 99.3641 126.369C97.2198 127.35 95.3204 128.927 93.2209 130.031C92.084 130.374 91.2252 131.382 90.0685 131.685C89.468 132.176 88.686 132.267 88.1436 132.906C87.4846 133.513 86.3863 133.19 85.5402 133.222C84.1126 132.938 83.0341 131.821 81.7613 131.175C81.1928 130.516 80.4499 130.283 79.7909 129.831C77.5817 128.054 75.2369 126.614 73.0598 124.754L69.0804 121.291C67.3105 119.657 65.6244 118.048 63.9641 116.408C63.4992 115.781 62.9308 115.335 62.3494 114.831C59.3066 111.569 56.5936 108.171 53.8416 104.786C54.4746 104.631 55.1079 104.295 55.8506 104.315L55.9671 104.237L106.412 104.082L115.469 104.121ZM122.478 108.333C122.484 108.63 122.756 108.811 122.91 109.043C123.227 109.96 123.543 110.878 123.86 111.795C123.821 112.105 123.899 112.377 124.015 112.622L124.131 148.461C123.905 148.771 124.086 149.249 123.976 149.605C123.725 150.8 123.24 151.898 122.91 153.067C119.707 149.527 116.121 146.078 112.362 143.461L108.537 140.781L103.537 137.906C101.167 136.614 98.796 135.316 96.2117 134.521C95.8373 134.359 95.2234 134.308 94.8746 134.56C94.7715 134.702 94.5388 134.799 94.5583 134.993C95.4045 135.994 96.4508 136.491 97.3943 137.234L105.701 142.279C108.266 144.049 110.934 145.567 113.343 147.712C115.986 150.031 119.17 152.537 120.901 155.548C120.236 156.142 119.429 156.407 118.737 156.969C118.214 157.008 117.884 157.544 117.284 157.402C116.883 157.751 116.231 157.518 115.785 157.751L56.5225 157.912C56.1478 157.731 55.676 157.777 55.2562 157.712C54.0807 157.356 52.963 156.827 51.8715 156.258C52.5561 155.852 53.1891 155.328 53.9191 155.037C54.63 154.275 55.5083 153.584 56.0443 152.751C56.6906 152.344 57.1169 151.743 57.6205 151.174L62.6657 146.252L67.4656 142.24C70.2303 140.038 73.1439 138.197 76.1282 136.53C76.8776 136.188 76.9162 135.348 77.3105 134.753C77.2715 134.585 77.4071 134.276 77.194 134.243C77.2134 134.114 77.0584 134.062 76.9938 133.965C75.999 133.752 75.3209 134.314 74.4748 134.482C73.8544 134.837 73.234 135.199 72.5881 135.503L67.8209 138.3L62.6657 141.924L57.1876 146.297C55.5343 147.524 54.0483 149.243 52.5435 150.742C52.3043 151.078 52.0847 151.517 51.7161 151.691C51.6324 151.956 51.232 152.085 51.3612 152.434C51.064 152.537 51.2901 152.854 51.1675 153.028L50.5341 154.876C50.0883 154.301 49.3904 153.59 49.1971 152.789C48.8934 151.924 48.3506 151.155 48.2925 150.193C48.0342 149.954 48.312 149.488 48.0534 149.249L47.8983 113.611C48.1186 113.016 48.1056 112.325 48.2088 111.679C48.5381 110.852 48.6993 109.954 49.1971 109.198C49.2357 108.571 50.0241 108.255 50.0627 107.622L50.8119 106.756C51.755 107.558 52.2077 108.559 53.0535 109.399L57.782 114.831C59.6233 117.015 61.91 118.817 63.9255 120.936C65.6117 122.699 67.5237 123.927 69.1966 125.736C71.2445 127.312 73.1954 129.088 75.2239 130.703C77.8205 132.667 80.3658 134.753 83.0211 136.569C84.2096 137.183 85.7666 136.801 86.8837 136.291C87.4976 136.239 87.9755 135.852 88.5378 135.664C89.9329 135.077 91.2119 134.198 92.6333 133.655C93.7442 133.248 94.629 132.299 95.7792 132.001C99.1639 129.896 102.543 127.783 105.824 125.425C107.581 123.771 109.539 122.615 111.218 120.774C112.827 119.205 114.732 117.603 115.902 115.774C117.407 114.237 118.195 112.396 119.409 110.736C120.017 109.386 120.495 107.99 121.102 106.64L122.478 108.333Z" fill="white"/>
<path fill-rule="evenodd" clip-rule="evenodd" d="M168.083 156.284V101.63H205.551V107.124H174.422V124.872H193.297C199.354 124.872 203.72 125.999 206.256 128.535C208.791 130.929 210.059 135.014 210.059 140.649C210.059 146.283 208.791 150.227 206.256 152.622C203.72 155.157 199.354 156.284 193.438 156.284H168.083ZM174.422 150.791V130.225H192.029C196.677 130.225 199.776 130.929 201.326 132.338C202.875 133.746 203.72 136.563 203.72 140.649C203.72 144.452 203.016 147.128 201.608 148.678C200.199 150.086 197.241 150.791 193.015 150.791H174.422Z" fill="white"/>
<path fill-rule="evenodd" clip-rule="evenodd" d="M309.261 101.63H354.876V156.284H348.662V107.136H315.475V156.284H309.261V101.63Z" fill="white"/>
<path fill-rule="evenodd" clip-rule="evenodd" d="M221.042 125.638H249.849V131.005H221.042V150.917H250.978V156.284H214.687V101.63H251.12V106.996H221.042V125.638Z" fill="white"/>
<path fill-rule="evenodd" clip-rule="evenodd" d="M383.394 156.284C392.918 156.284 399.13 154.628 402.166 151.178C405.202 147.727 406.721 140.274 406.721 128.957C406.721 117.778 405.202 110.325 402.166 106.874C399.13 103.424 392.918 101.63 383.463 101.63C374.009 101.63 367.798 103.424 364.761 106.874C361.724 110.325 360.206 117.64 360.206 128.957C360.206 140.274 361.724 147.589 364.761 151.04C367.798 154.628 374.009 156.284 383.394 156.284ZM383.394 151.04C390.986 151.04 395.679 149.797 397.611 147.175C399.544 144.553 400.51 138.48 400.51 128.957C400.51 119.434 399.544 113.223 397.611 110.739C395.679 108.117 390.986 106.874 383.394 106.874C375.803 106.874 371.11 108.117 369.178 110.739C367.383 113.223 366.417 119.296 366.417 128.957C366.417 138.618 367.384 144.691 369.316 147.175C371.248 149.797 375.941 151.04 383.394 151.04Z" fill="white"/>
<path fill-rule="evenodd" clip-rule="evenodd" d="M254.826 156.284L275.338 101.63H284.375L305.174 156.284H298.576C292.408 139.501 286.24 123.004 279.928 106.077C273.904 122.86 268.166 139.787 261.567 156.284H254.826Z" fill="white"/>
<path fill-rule="evenodd" clip-rule="evenodd" d="M95.4929 52.4281L32.2126 0C29.1118 37.7707 0.642822 65.9582 0.642822 104.293C0.642822 153.479 40.5277 193.364 89.7146 193.364C115.647 193.364 142.989 193.224 168.921 193.224V179.976H122.736C138.012 168.681 147.921 150.54 147.921 130.084C147.921 95.6956 120.157 67.9314 85.9091 67.9314C57.4268 67.9314 33.4332 87.1346 26.1607 113.381C28.5871 76.0893 61.5794 57.9902 95.4929 52.4281ZM85.9091 180.116C58.2856 180.116 35.8767 157.708 35.8767 130.084C35.8767 102.461 58.2856 80.0516 85.9091 80.0516C113.533 80.0516 135.941 102.461 135.941 130.084C135.941 157.708 113.533 180.116 85.9091 180.116Z" fill="white"/>
<path fill-rule="evenodd" clip-rule="evenodd" d="M534.825 145.155L539.051 156.283H545.812L524.824 101.629H515.668L495.103 156.283H501.864L506.371 145.155H534.825ZM507.921 139.802L520.317 106.207L532.853 139.802H507.921Z" fill="white"/>
<path fill-rule="evenodd" clip-rule="evenodd" d="M484.552 107.136V156.283H478.198V107.136H459.696V101.629H502.91V107.136H484.552Z" fill="white"/>
<path d="M447.878 156.283V130.598C445.446 131.231 442.697 131.596 439.632 131.692C436.568 131.79 433.82 131.839 431.387 131.839C423.944 131.839 418.983 130.671 416.501 128.336C414.02 126.001 412.78 121.356 412.78 114.399V101.629H418.836V115.494C418.836 120.31 419.955 123.423 422.193 124.834C423.896 125.904 427.447 126.439 432.847 126.439H434.525C437.541 126.439 440.095 126.378 442.186 126.256C444.279 126.135 446.176 125.855 447.878 125.417V101.629H453.935V156.283H447.878Z" fill="white"/>
</svg>
